<?xml version="1.0" encoding="UTF-8"?>
<svg width="64px" height="74px" viewBox="0 0 64 74" version="1.1" xmlns="http://www.w3.org/2000/svg" xmlns:xlink="http://www.w3.org/1999/xlink">
    <!-- Generator: Sketch 52.5 (67469) - http://www.bohemiancoding.com/sketch -->
    <title>Shape</title>
    <desc>Created with Sketch.</desc>
    <g id="Welcome" stroke="none" stroke-width="1" fill="none" fill-rule="evenodd">
        <g id="Desktop-HD" transform="translate(-819.000000, -1840.000000)" fill="#323232" fill-rule="nonzero">
            <g id="3-block" transform="translate(0.000000, 1622.000000)">
                <g id="Преимущества" transform="translate(208.000000, 216.000000)">
                    <g id="ICONS" transform="translate(83.000000, 0.000000)">
                        <g id="ruble-sign-solid" transform="translate(528.000000, 2.000000)">
                            <path d="M39.8933333,47.5714286 C54.08,47.5714286 64,37.7502411 64,23.6322634 C64,9.51428571 54.08,0 39.8933333,0 L12.6666667,0 C11.5621667,0 10.6666667,0.887504464 10.6666667,1.98214286 L10.6666667,36.1133214 L2,36.1133214 C0.8955,36.1133214 0,37.0008259 0,38.0954643 L0,45.5892857 C0,46.6839241 0.8955,47.5714286 2,47.5714286 L10.6666667,47.5714286 L10.6666667,52.8571429 L2,52.8571429 C0.8955,52.8571429 0,53.7446473 0,54.8392857 L0,61.4464286 C0,62.541067 0.8955,63.4285714 2,63.4285714 L10.6666667,63.4285714 L10.6666667,72.0178571 C10.6666667,73.1124955 11.5621667,74 12.6666667,74 L22.4266667,74 C23.5311667,74 24.4266667,73.1124955 24.4266667,72.0178571 L24.4266667,63.4285714 L51.3333333,63.4285714 C52.4378333,63.4285714 53.3333333,62.541067 53.3333333,61.4464286 L53.3333333,54.8392857 C53.3333333,53.7446473 52.4378333,52.8571429 51.3333333,52.8571429 L24.4266667,52.8571429 L24.4266667,47.5714286 L39.8933333,47.5714286 Z M24.4266667,11.3556964 L37.5466667,11.3556964 C45.3333333,11.3556964 50.0266667,16.1640446 50.0266667,23.6322634 C50.0266667,31.2027277 45.3333333,36.1133214 37.3333333,36.1133214 L24.4266667,36.1133214 L24.4266667,11.3556964 Z" id="Shape"></path>
                        </g>
                    </g>
                </g>
            </g>
        </g>
    </g>
</svg>