<?xml version="1.0" encoding="UTF-8"?>
<svg width="71px" height="74px" viewBox="0 0 71 74" version="1.1" xmlns="http://www.w3.org/2000/svg" xmlns:xlink="http://www.w3.org/1999/xlink">
    <!-- Generator: Sketch 52.5 (67469) - http://www.bohemiancoding.com/sketch -->
    <title>Shape</title>
    <desc>Created with Sketch.</desc>
    <g id="Welcome" stroke="none" stroke-width="1" fill="none" fill-rule="evenodd">
        <g id="Desktop-HD" transform="translate(-1077.000000, -1840.000000)" fill="#323232" fill-rule="nonzero">
            <g id="3-block" transform="translate(0.000000, 1622.000000)">
                <g id="Преимущества" transform="translate(208.000000, 216.000000)">
                    <g id="ICONS" transform="translate(83.000000, 0.000000)">
                        <g id="twitch-brands" transform="translate(786.000000, 2.000000)">
                            <path d="M4.9932243,0 L0,12.7022321 L0,64.6178571 L17.75,64.6178571 L17.75,74 L27.7364486,74 L37.1588785,64.6178571 L51.5911215,64.6178571 L71,45.2919643 L71,0 L4.9932243,0 Z M64.3478972,41.971875 L53.25,53.0223214 L35.5,53.0223214 L26.0775701,62.4044643 L26.0775701,53.0223214 L11.0978972,53.0223214 L11.0978972,6.62366071 L64.3478972,6.62366071 L64.3478972,41.971875 Z M53.25,19.3258929 L53.25,38.6352679 L46.5978972,38.6352679 L46.5978972,19.3258929 L53.25,19.3258929 Z M35.5,19.3258929 L35.5,38.6352679 L28.8478972,38.6352679 L28.8478972,19.3258929 L35.5,19.3258929 Z" id="Shape"></path>
                        </g>
                    </g>
                </g>
            </g>
        </g>
    </g>
</svg>