<?xml version="1.0" encoding="UTF-8"?>
<svg width="76px" height="76px" viewBox="0 0 76 76" version="1.1" xmlns="http://www.w3.org/2000/svg" xmlns:xlink="http://www.w3.org/1999/xlink">
    <!-- Generator: Sketch 52.5 (67469) - http://www.bohemiancoding.com/sketch -->
    <title>Shape</title>
    <desc>Created with Sketch.</desc>
    <g id="Welcome" stroke="none" stroke-width="1" fill="none" fill-rule="evenodd">
        <g id="Desktop-HD" transform="translate(-291.000000, -1838.000000)" fill="#323232" fill-rule="nonzero">
            <g id="3-block" transform="translate(0.000000, 1622.000000)">
                <g id="Преимущества" transform="translate(208.000000, 216.000000)">
                    <g id="ICONS" transform="translate(83.000000, 0.000000)">
                        <g id="globe-solid">
                            <path d="M51.5708812,23.2903226 C49.348659,9.60725806 44.1072797,0 38.0076628,0 C31.908046,0 26.6666667,9.60725806 24.4444444,23.2903226 L51.5708812,23.2903226 Z M23.2950192,38 C23.2950192,41.4016129 23.4789272,44.6653226 23.8007663,47.8064516 L52.1992337,47.8064516 C52.5210728,44.6653226 52.7049808,41.4016129 52.7049808,38 C52.7049808,34.5983871 52.5210728,31.3346774 52.1992337,28.1935484 L23.8007663,28.1935484 C23.4789272,31.3346774 23.2950192,34.5983871 23.2950192,38 Z M73.0574713,23.2903226 C68.6743295,12.8862903 59.8007663,4.84193548 48.8429119,1.59354839 C52.5823755,6.77258065 55.1570881,14.5717742 56.5057471,23.2903226 L73.0574713,23.2903226 Z M27.1570881,1.59354839 C16.2145594,4.84193548 7.3256705,12.8862903 2.95785441,23.2903226 L19.5095785,23.2903226 C20.8429119,14.5717742 23.4176245,6.77258065 27.1570881,1.59354839 Z M74.697318,28.1935484 L57.1187739,28.1935484 C57.440613,31.4112903 57.6245211,34.7056452 57.6245211,38 C57.6245211,41.2943548 57.440613,44.5887097 57.1187739,47.8064516 L74.6819923,47.8064516 C75.5249042,44.6653226 76,41.4016129 76,38 C76,34.5983871 75.5249042,31.3346774 74.697318,28.1935484 Z M18.3908046,38 C18.3908046,34.7056452 18.5747126,31.4112903 18.8965517,28.1935484 L1.31800766,28.1935484 C0.490421456,31.3346774 0,34.5983871 0,38 C0,41.4016129 0.490421456,44.6653226 1.31800766,47.8064516 L18.8812261,47.8064516 C18.5747126,44.5887097 18.3908046,41.2943548 18.3908046,38 Z M24.4444444,52.7096774 C26.6666667,66.3927419 31.908046,76 38.0076628,76 C44.1072797,76 49.348659,66.3927419 51.5708812,52.7096774 L24.4444444,52.7096774 Z M48.8582375,74.4064516 C59.8007663,71.1580645 68.6896552,63.1137097 73.0727969,52.7096774 L56.5210728,52.7096774 C55.1724138,61.4282258 52.5977011,69.2274194 48.8582375,74.4064516 Z M2.95785441,52.7096774 C7.34099617,63.1137097 16.2145594,71.1580645 27.1724138,74.4064516 C23.4329502,69.2274194 20.8582375,61.4282258 19.5095785,52.7096774 L2.95785441,52.7096774 Z" id="Shape"></path>
                        </g>
                    </g>
                </g>
            </g>
        </g>
    </g>
</svg>