<?xml version="1.0" encoding="UTF-8"?>
<svg width="85px" height="74px" viewBox="0 0 85 74" version="1.1" xmlns="http://www.w3.org/2000/svg" xmlns:xlink="http://www.w3.org/1999/xlink">
    <!-- Generator: Sketch 52.5 (67469) - http://www.bohemiancoding.com/sketch -->
    <title>Shape</title>
    <desc>Created with Sketch.</desc>
    <g id="Welcome" stroke="none" stroke-width="1" fill="none" fill-rule="evenodd">
        <g id="Desktop-HD" transform="translate(-808.000000, -1146.000000)" fill="#FFFFFF" fill-rule="nonzero">
            <g id="2-block" transform="translate(0.000000, 930.000000)">
                <g id="Преимущества" transform="translate(208.000000, 215.000000)">
                    <g id="ICONS" transform="translate(79.000000, 0.000000)">
                        <g id="camera-solid" transform="translate(521.000000, 1.000000)">
                            <path d="M85,18.5 L85,66.0714286 C85,70.4486607 81.4306641,74 77.03125,74 L7.96875,74 C3.56933594,74 0,70.4486607 0,66.0714286 L0,18.5 C0,14.1227679 3.56933594,10.5714286 7.96875,10.5714286 L22.578125,10.5714286 L24.6201172,5.13705357 C25.7822266,2.04821429 28.7539063,0 32.0742188,0 L52.9091797,0 C56.2294922,0 59.2011719,2.04821429 60.3632813,5.13705357 L62.421875,10.5714286 L77.03125,10.5714286 C81.4306641,10.5714286 85,14.1227679 85,18.5 Z M62.421875,42.2857143 C62.421875,31.3508929 53.4902344,22.4642857 42.5,22.4642857 C31.5097656,22.4642857 22.578125,31.3508929 22.578125,42.2857143 C22.578125,53.2205357 31.5097656,62.1071429 42.5,62.1071429 C53.4902344,62.1071429 62.421875,53.2205357 62.421875,42.2857143 Z M57.109375,42.2857143 C57.109375,50.296875 50.5517578,56.8214286 42.5,56.8214286 C34.4482422,56.8214286 27.890625,50.296875 27.890625,42.2857143 C27.890625,34.2745536 34.4482422,27.75 42.5,27.75 C50.5517578,27.75 57.109375,34.2745536 57.109375,42.2857143 Z" id="Shape"></path>
                        </g>
                    </g>
                </g>
            </g>
        </g>
    </g>
</svg>